<?xml version="1.0" standalone="no"?>
<!DOCTYPE svg PUBLIC "-//W3C//DTD SVG 20010904//EN"
 "http://www.w3.org/TR/2001/REC-SVG-20010904/DTD/svg10.dtd">
<svg version="1.0" xmlns="http://www.w3.org/2000/svg"
 width="260.000000pt" height="260.000000pt" viewBox="0 0 260.000000 260.000000"
 preserveAspectRatio="xMidYMid meet">
<metadata>
Created by potrace 1.11, written by Peter Selinger 2001-2013
</metadata>
<g transform="translate(0.000000,260.000000) scale(0.100000,-0.100000)"
fill="#000000" stroke="none">
<path d="M1 1873 c0 -401 4 -719 9 -708 4 11 18 29 31 41 20 17 2177 1265
2354 1361 l60 33 -1227 0 -1228 0 1 -727z"/>
<path d="M2527 2585 c18 -8 42 -29 53 -47 l20 -33 0 48 0 47 -52 0 -53 -1 32
-14z"/>
<path d="M2411 1344 c-204 -1225 -187 -1150 -270 -1175 -36 -11 -49 -6 -337
114 -164 69 -316 132 -336 140 l-37 15 -167 -204 c-92 -113 -179 -211 -193
-219 -23 -12 74 -14 752 -15 l777 0 0 1225 c0 674 -1 1225 -3 1225 -1 0 -85
-498 -186 -1106z"/>
<path d="M2053 2048 c-37 -32 -1379 -1214 -1418 -1249 -20 -18 -27 -15 -295
97 -151 64 -283 123 -294 133 -10 9 -25 30 -32 46 -11 25 -13 -55 -14 -522 l0
-553 498 0 c432 1 493 3 465 15 -58 25 -63 48 -63 298 l0 224 605 738 c333
406 610 746 615 756 7 13 6 22 -6 33 -20 21 -17 21 -61 -16z"/>
</g>
</svg>
